<svg viewBox="0 0 21.13 24" xmlns="http://www.w3.org/2000/svg"><path d="m18.51 4.7s-.02-.11-.08-.15-.13-.05-.13-.05l-1.93-.14-1.42-1.41c-.05-.04-.12-.07-.18-.08-.15-.03-.36 0-.39.01l-.74.23c-.32-.95-.76-1.62-1.31-2.01-.41-.29-.85-.41-1.33-.37-.1-.13-.21-.25-.33-.35-.53-.43-1.22-.5-2.04-.2-2.46.9-3.51 4.09-3.89 5.68l-2.15.67s-.5.14-.62.29c-.13.16-.15.58-.15.58l-1.82 14.05 13.72 2.56 7.41-1.6-2.62-17.7zm-7.6-.74-2.37.73c.31-1.23.92-2.49 2.07-2.98.24.63.31 1.49.3 2.25zm-1.99-3c.5-.18.89-.17 1.18.02-1.55.71-2.23 2.49-2.52 4.01l-1.9.59c.43-1.53 1.37-3.94 3.24-4.62zm1.33 10.35c-.11-.05-.24-.11-.38-.16s-.3-.11-.48-.15c-.17-.04-.36-.08-.55-.1s-.4-.03-.61-.01c-.19.01-.37.05-.52.1s-.29.13-.39.22c-.11.09-.2.2-.25.33-.06.13-.1.27-.1.43 0 .12.01.23.05.34s.11.22.19.33c.09.11.2.22.34.32.14.11.3.22.48.34.26.17.53.36.78.57.26.22.5.47.71.75.21.29.39.6.51.96s.18.76.16 1.2c-.03.72-.19 1.34-.45 1.85s-.61.91-1.04 1.2c-.42.28-.9.46-1.43.53-.51.07-1.06.04-1.63-.09 0 0 0 0-.01 0s0 0-.01 0c0 0 0 0-.01 0s0 0-.01 0c-.26-.06-.52-.15-.76-.24-.24-.1-.46-.2-.66-.32s-.38-.24-.54-.37c-.15-.13-.29-.26-.39-.39l.62-2.07c.11.09.24.19.38.29.15.11.32.21.49.31.18.1.37.19.57.27s.41.14.61.17c.18.03.34.02.48 0 .14-.03.26-.09.36-.17s.18-.18.23-.3.09-.25.09-.39 0-.28-.04-.41-.1-.26-.18-.38-.19-.25-.33-.38-.3-.26-.49-.4c-.24-.18-.46-.37-.66-.58s-.37-.43-.52-.68c-.14-.24-.25-.5-.33-.79-.07-.28-.11-.59-.09-.92.02-.56.13-1.07.32-1.53.19-.47.46-.88.79-1.24.34-.37.75-.68 1.23-.92.49-.24 1.05-.42 1.68-.5.29-.04.57-.06.83-.06s.52.01.75.04.45.07.63.13c.19.05.36.12.49.19l-.91 2.71zm1.48-7.61c0-.09 0-.19 0-.28-.03-.74-.13-1.36-.3-1.86.19.02.36.08.51.19.43.3.74.92.96 1.6l-1.16.36z"/></svg>