<svg viewBox="0 0 30 24" xmlns="http://www.w3.org/2000/svg"><path d="m28.3 7.88c-2.26-2.27-5.93-2.27-8.19 0l-9.21 9.27c-.57.57-.57 1.49 0 2.06s1.48.57 2.05 0l9.21-9.26c1.13-1.14 2.96-1.14 4.09 0s1.13 2.98 0 4.12l-9.03 9.09c1.13 1.14 2.96 1.14 4.09 0l6.99-7.03c2.26-2.27 2.26-5.96 0-8.24m-3.07 3.09c-.57-.57-1.48-.57-2.05 0l-9.21 9.26c-1.13 1.14-2.96 1.14-4.09 0-.57-.57-1.48-.57-2.05 0s-.57 1.49 0 2.06c2.26 2.28 5.93 2.28 8.19 0l9.21-9.26c.57-.57.57-1.49 0-2.06m-3.07-9.27c-2.26-2.27-5.93-2.27-8.19 0l-9.21 9.26c-.56.57-.56 1.49 0 2.06.57.57 1.48.57 2.05 0l9.21-9.26c1.13-1.14 2.96-1.14 4.09 0 .57.57 1.48.57 2.05 0s.57-1.49 0-2.06m-3.07 3.09c-.57-.57-1.48-.57-2.05 0l-9.21 9.26c-1.13 1.14-2.96 1.14-4.09 0s-1.13-2.98 0-4.12l9.04-9.09c-1.13-1.14-2.96-1.14-4.09 0l-7 7.03c-2.26 2.27-2.26 5.96 0 8.24s5.93 2.28 8.19 0l9.21-9.26c.57-.57.57-1.49 0-2.06" fill-rule="evenodd"/></svg>