<svg viewBox="0 0 95.42 24" xmlns="http://www.w3.org/2000/svg"><path d="m30.81 9.39c0-1.71-1.66-3.53-4.55-3.53-3.23 0-6.79 2.37-7.33 7.11-.55 4.78 2.42 6.91 5.42 6.91s4.57-1.17 6.17-2.73c-1.38-1.74-3.16-.93-3.51-.76-.38.19-.86.45-1.85.45-1.16 0-2.34-.52-2.34-2.68 7.41-.73 7.98-3.06 7.98-4.77zm-3.67.28c-.05.53-.26 1.44-4.01 1.95.79-2.81 2.3-3.02 3-3.02.65 0 1.06.51 1.02 1.07zm-12.56.46s-1.59 5.01-1.72 5.42c-.05-.42-1.22-9.41-1.22-9.41-2.72 0-4.17 1.94-4.93 3.98 0 0-1.94 5.02-2.1 5.44-.01-.39-.3-5.38-.3-5.38-.17-2.5-2.46-4.03-4.31-4.03l2.24 13.61c2.85-.01 4.38-1.94 5.18-3.98 0 0 1.71-4.43 1.78-4.63.01.19 1.23 8.61 1.23 8.61 2.86 0 4.39-1.81 5.22-3.78l4-9.83c-2.82 0-4.31 1.92-5.08 3.98zm26.72-4.3c-1.76 0-3.1.96-4.24 2.36s1.02-8.19 1.02-8.19c-2.34 0-4.24 2.03-4.6 5.05l-1.77 14.6c1.35 0 2.77-.39 3.54-1.38.68.89 1.71 1.59 3.23 1.59 3.94 0 6.65-4.58 6.65-8.88-.02-3.92-1.92-5.16-3.82-5.16zm-.37 7.02c-.41 2.4-1.75 4.03-3.03 4.03s-1.85-.58-1.85-.58c.25-2.1.4-3.39.87-4.5s1.59-2.88 2.76-2.88 1.66 1.52 1.25 3.93zm14.04-6.71h-2.75v-.14c.2-1.79.63-2.74 2.03-2.89.96-.09 1.38-.59 1.49-1.13.08-.42.34-1.9.34-1.9-5.52-.04-7.26 2.35-7.71 5.99v.08h-.07c-.9 0-1.89 1.02-2.05 2.3l-.06.47h1.84l-1.55 12.77-.47 2.29c.06 0 .13.01.19.01 2.59-.09 4.24-2.14 4.6-5.1l1.2-9.98h.86c.85 0 1.84-.85 2.02-2.27l.08-.51zm14.31-.24c-3.18 0-6.17 2.34-7.09 6.01s.47 8.02 5.15 8.02 7.35-4.52 7.35-8.29-2.54-5.74-5.41-5.74zm1.29 6.82c-.17 1.66-.9 4.19-2.9 4.19s-1.74-2.95-1.53-4.36c.21-1.5 1.05-3.64 2.86-3.64 1.62 0 1.77 1.92 1.58 3.8zm19.81-2.61s-1.59 5.01-1.72 5.42c-.05-.42-1.22-9.41-1.22-9.41-2.72 0-4.17 1.94-4.93 3.98 0 0-1.94 5.02-2.1 5.44-.01-.39-.3-5.38-.3-5.38-.17-2.5-2.46-4.03-4.31-4.03l2.23 13.61c2.85-.01 4.38-1.94 5.18-3.98 0 0 1.71-4.43 1.77-4.63.01.19 1.23 8.61 1.23 8.61 2.86 0 4.39-1.81 5.22-3.78l4-9.83c-2.81 0-4.3 1.92-5.05 3.98zm-32.82-10.03-2.31 18.66-.47 2.3c.06 0 .13.01.19.01 2.49-.04 4.26-2.22 4.59-4.97l1.33-10.71c.4-3.27-1.55-5.3-3.33-5.3z"/></svg>