<svg enable-background="new 0 0 60.4 24" viewBox="0 0 60.4 24" xmlns="http://www.w3.org/2000/svg"><path d="m8.6 16.1c.2-.7.4-1.4.6-2.1.7-2.7 1.4-5.5 2.1-8.2.3-1.1.6-2.1 1.2-3v.1c.5-1 1.5-1.6 2.5-1.8.3-.1.6-.1.9-.1 1.2 0 2.2.5 3 1.3.3.4.6.9.8 1.4.5 1.2 1 2.8 1.4 4.5l.1.3c.7 2.5 1.3 5 2 7.5 0 .1 0 .1.1.2.1-.6.3-1.1.4-1.7.9-3.3 1.7-6.7 2.6-10 .2-.6.3-1.2.5-1.9.1-.5.3-.9.6-1.2.4-.6 1-.9 1.6-1.1.8-.2 1.7-.3 2.6-.3.2 0 .2 0 .2.2-.8 3-1.6 6-2.3 8.9-1.1 4.4-2.3 8.8-3.5 13.2-.1.4-.2.9-.3 1.3 0 .1 0 .2-.1.2-.2 0-.4 0-.6 0-.7 0-1.3-.1-1.9-.3-.3-.1-.6-.3-.8-.5-.3-.3-.6-.6-.8-.9-.3-.4-.5-.9-.7-1.4-.7-1.6-1.3-3.5-1.7-5.5v-.2c-.7-2.8-1.4-5.6-2.1-8.5 0-.2-.1-.3-.2-.5s-.3-.3-.6-.3c-.3 0-.5.2-.6.5-.2.8-.4 1.5-.6 2.3-.8 3.2-1.7 6.5-2.5 9.7-.3 1-.7 1.9-1 2.8-.4.9-.9 1.7-1.7 2.2-.3.3-.8.5-1.2.5-.4 0-.8.1-1.3.1-.1 0-.3 0-.4 0-.2 0-.2-.1-.2-.2-.8-3.1-1.6-6.1-2.4-9.2-1.1-4-2.1-8-3.2-12l-1.1-2.1c0-.1-.1-.2.1-.2.3-.1.6-.1.9-.1 1 0 2 .2 2.8.6.6.3 1 .8 1.2 1.5.4 1.4.8 2.8 1.1 4.3.8 3.2 1.7 6.4 2.5 9.6v.1s.1 0 0 0z"/><path d="m38.6 24c.2-.4.5-.7.7-1 2.4-3.6 4.8-7.2 7.2-10.8v-.1c0-.1 0-.1-.1-.1-2-3-4-5.9-6-8.9l-1.8-2.7s-.1-.1-.1-.2l1.2.1c.8 0 1.5.1 2.3.1.6.1 1.2.3 1.6.7.4.3.7.7 1 1.1 1.3 2 2.6 4 4 5.9.6.9.9.8 1.5.1.3-.4.6-.8.9-1.2 1.1-1.7 2.2-3.4 3.4-5 .6-.9 1.6-1.5 2.7-1.6.8-.3 1.6-.4 2.5-.4h.8c.2 0 .1.1 0 .2-.6.8-1.1 1.7-1.7 2.5-2 3.1-4.1 6.1-6.1 9.1 0 0-.1.1-.1.2s0 .1.1.2c2.6 3.9 5.2 7.7 7.8 11.6 0 .1.1.1.1.2s-.1 0-.2 0c-.2 0-.5 0-.8 0-.7 0-1.5 0-2.2-.1h.1c-1.1-.1-2-.6-2.7-1.4-.3-.4-.7-.9-.9-1.3-1.1-1.6-2.2-3.3-3.3-4.9-.2-.3-.4-.5-.6-.7-.1-.1-.2-.1-.3-.1s-.2.1-.3.1c-.2.1-.3.3-.5.5-1.4 2-2.6 4-4 6-.6.9-1.6 1.6-2.7 1.8-.5.1-1.2.1-1.8.1-.2 0-.4 0-.5 0z"/><path d="m36.8 3.9v.3 16.6.1c0 1.1-.6 2.1-1.5 2.6-.3.2-.7.4-1.1.4-.4 0-.8.1-1.3.1h-.1c-.2 0-.3-.1-.3-.3 0-3 0-6 0-8.9 0-2.5 0-5 0-7.5 0-.5.3-.9.7-1.1s.8-.4 1.2-.6c.8-.4 1.4-.8 2-1.2.1-.2.2-.3.4-.5z"/><path d="m32.5 5c0-.8.1-1.5.3-2.1v.1c.2-.8.7-1.5 1.3-2 .6-.4 1.3-.7 2-.8.2-.2.5-.2.7-.2s.2.1.2.2v.1c0 .3 0 .6-.1.9-.2 1-.6 1.9-1.3 2.6-.4.4-.8.6-1.3.8-.6.2-1.1.5-1.5.8-.1 0-.1.1-.2.1s0-.2 0-.2-.1-.2-.1-.3z"/></svg>