<svg viewBox="0 0 24 24" xmlns="http://www.w3.org/2000/svg"><path d="m12 0c-6.62 0-12 5.38-12 12s5.38 12 12 12 12-5.38 12-12-5.38-12-12-12zm-10.79 12c0-1.56.34-3.05.93-4.39l5.15 14.1c-3.6-1.75-6.08-5.44-6.08-9.71zm10.79 10.79c-1.06 0-2.08-.16-3.05-.44l3.24-9.41 3.32 9.09c.02.05.05.1.08.15-1.12.39-2.33.61-3.58.61zm1.49-15.85c.65-.03 1.23-.1 1.23-.1.58-.07.51-.92-.07-.89 0 0-1.75.14-2.88.14-1.06 0-2.84-.14-2.84-.14-.58-.03-.65.85-.07.89 0 0 .55.07 1.13.1l1.68 4.61-2.36 7.08-3.93-11.69c.65-.03 1.23-.1 1.23-.1.58-.07.51-.92-.07-.89 0 0-1.75.14-2.88.14-.2 0-.44 0-.69-.01 1.94-2.94 5.26-4.87 9.03-4.87 2.81 0 5.37 1.07 7.29 2.83-.05 0-.09 0-.14 0-1.06 0-1.81.92-1.81 1.91 0 .89.51 1.64 1.06 2.53.41.72.89 1.64.89 2.98 0 .92-.36 1.99-.82 3.49l-1.08 3.6-3.9-11.6zm3.94 14.38 3.3-9.53c.62-1.54.82-2.77.82-3.86 0-.4-.03-.77-.07-1.11.84 1.54 1.32 3.3 1.32 5.18 0 3.98-2.16 7.46-5.36 9.33z"/></svg>